<?xml version="1.0" standalone="no"?>
<!DOCTYPE svg PUBLIC "-//W3C//DTD SVG 20010904//EN"
 "http://www.w3.org/TR/2001/REC-SVG-20010904/DTD/svg10.dtd">
<svg version="1.0" xmlns="http://www.w3.org/2000/svg"
 width="512.000000pt" height="512.000000pt" viewBox="0 0 512.000000 512.000000"
 preserveAspectRatio="xMidYMid meet">

<g transform="translate(0.000000,512.000000) scale(0.100000,-0.100000)"
fill="#000000" stroke="none">
<path d="M4535 2909 c-69 -70 -182 -150 -263 -186 -105 -46 -214 -66 -342 -60
-138 6 -191 24 -332 115 -104 68 -171 100 -279 134 -63 19 -96 23 -219 23
-163 0 -227 -13 -338 -68 -83 -40 -188 -138 -227 -211 l-29 -56 84 -85 c47
-47 87 -85 90 -85 3 0 24 16 46 36 59 55 201 154 251 175 100 43 163 53 318
53 117 0 163 -4 210 -18 83 -26 175 -68 232 -107 47 -33 49 -33 176 -35 156
-3 189 -8 291 -45 107 -39 134 -37 236 13 63 32 103 60 156 114 87 86 136 166
124 200 -13 34 -102 154 -115 154 -6 0 -37 -27 -70 -61z"/>
<path d="M4288 682 c-110 -91 -219 -146 -366 -182 -300 -75 -860 -99 -1262
-54 -262 29 -455 76 -694 170 -76 30 -140 53 -143 51 -8 -8 134 -107 218 -151
172 -92 361 -157 579 -199 238 -47 311 -52 725 -51 374 1 397 2 550 28 269 45
354 75 459 161 60 50 116 125 116 157 0 24 -88 118 -109 117 -9 0 -41 -22 -73
-47z"/>
</g>
</svg>
